<svg id="Layer_1" data-name="Layer 1" xmlns="http://www.w3.org/2000/svg" viewBox="0 0 257.3 102.28"><defs><style>.cls-1{fill:#6b6c73;}.cls-2{fill:#a6a7ae;}</style></defs><title>KCS Logo</title><polygon class="cls-1" points="29.3 54.49 45.84 70.25 63.97 65.39 47.92 50.25 82.7 18.21 91.05 18.21 91.05 2.6 50.8 2.6 50.8 18.21 59.56 18.21 29.3 46.83 29.3 18.21 39.84 18.21 39.84 2.6 0 2.6 0 18.21 10.68 18.21 10.68 79.68 29.3 74.69 29.3 54.49"/><rect class="cls-1" x="51.48" y="85.55" width="41.62" height="14.81"/><rect class="cls-1" y="85.55" width="39.84" height="14.81"/><path class="cls-1" d="M398.66,297.24c0-18.35,13.56-32.31,32-32.31,10.54,0,21.5,5.61,27,14.92H475.1l0.37-.1V248.64H460.14v9.86c-7.94-8.22-18.9-12-30.26-12-27.79,0-50,23.28-50,50.66a53.57,53.57,0,0,0,.62,8.11l18.28-4.9C398.71,299.3,398.66,298.28,398.66,297.24Z" transform="translate(-291.83 -246.45)"/><path class="cls-1" d="M394.69,333.66a52,52,0,0,0,35.87,15.06A51.32,51.32,0,0,0,467.86,332H393.13C393.64,332.56,394.15,333.12,394.69,333.66Z" transform="translate(-291.83 -246.45)"/><path class="cls-1" d="M516.13,332.7a15.75,15.75,0,0,1-4.75-.7H484.64v14.81h14.79v-6.44c4.66,5.75,11.23,8.35,18.76,8.35,12.65,0,22.95-6.58,27.85-16.72h-25A17.32,17.32,0,0,1,516.13,332.7Z" transform="translate(-291.83 -246.45)"/><path class="cls-1" d="M515.72,262.6a12.51,12.51,0,0,1,9.25,3.88l20.19-5.41V249H530.92v5.48c-4.11-5.34-10.68-7.53-17.39-7.53C497.78,247,484,259,484,275.2c0,0.76,0,1.51.09,2.26l18.6-5C503.74,266.22,509.23,262.6,515.72,262.6Z" transform="translate(-291.83 -246.45)"/><polygon class="cls-2" points="11.55 82.55 29.3 82.55 29.3 77.8 11.55 82.55"/><polygon class="cls-2" points="48.39 72.68 58.76 82.55 82.15 82.55 66.53 67.81 48.39 72.68"/><path class="cls-2" d="M457.94,314.63A31.85,31.85,0,0,1,435.71,329H470.4a46.65,46.65,0,0,0,7.67-14.37H457.94Z" transform="translate(-291.83 -246.45)"/><path class="cls-2" d="M399.24,303.3l-18.17,4.87A51.61,51.61,0,0,0,390.64,329h34.69A32.1,32.1,0,0,1,399.24,303.3Z" transform="translate(-291.83 -246.45)"/><path class="cls-2" d="M494.63,296.56c6,4.52,12,6.3,19.17,8.35,7.53,2.19,16.7,4.65,16.7,14.38a12.81,12.81,0,0,1-4,9.71h20.81a32.6,32.6,0,0,0,1.84-10.95,25.77,25.77,0,0,0-9.72-20.54c-6.3-4.79-13.42-6.85-20.95-8.9-7.3-2.12-15.48-4.14-16-13l-18.05,4.84A25.54,25.54,0,0,0,494.63,296.56Z" transform="translate(-291.83 -246.45)"/><path class="cls-2" d="M528.45,275.34h16.7V264.18l-18.31,4.91A13.64,13.64,0,0,1,528.45,275.34Z" transform="translate(-291.83 -246.45)"/><path class="cls-2" d="M501.62,317.78h-17V329h21.59A15.18,15.18,0,0,1,501.62,317.78Z" transform="translate(-291.83 -246.45)"/></svg>